<svg xmlns="http://www.w3.org/2000/svg" viewBox="0 0 108 108">
<g transform="translate(54 54) scale(0.66) translate(-50 -50)"><mask id="g-m" maskUnits="userSpaceOnUse" x="0" y="0" width="100" height="100"><rect width="100" height="100" fill="#fff"/><path d="M31 78 V50 Q31 29 50 27 Q69 29 69 50 V78 Z" fill="#000"/></mask><g fill="none" stroke-linecap="round" stroke-linejoin="round">
<g mask="url(#g-m)">
<path d="M14 84 V52 A36 36 0 0 1 86 52 V84" stroke="#fff" stroke-width="1.8"/>
<path d="M20 84 V53 A30 30 0 0 1 80 53 V84" stroke="#fff" stroke-width="1.1" opacity=".7"/>
</g>
<path d="M31 78 V50 Q31 29 50 27 Q69 29 69 50 V78 Z" fill="none" stroke="#fff" stroke-width="3"/>
<rect x="43" y="32" width="14" height="3.5" rx="1" stroke="#fff" stroke-width="1.6"/>
<rect x="35" y="42" width="7.5" height="11" rx="1.6" stroke="#fff" stroke-width="2"/>
<rect x="57.5" y="42" width="7.5" height="11" rx="1.6" stroke="#fff" stroke-width="2"/>
<rect x="45" y="40" width="10" height="33" rx="1.6" stroke="#fff" stroke-width="2"/>
<rect x="47.2" y="43" width="5.6" height="10" rx="1" stroke="#fff" stroke-width="1.4"/>
<path d="M31 72 H45 M55 72 H69" stroke="#fff" stroke-width="1.6"/>
<path d="M36 78 L34 84 M64 78 L66 84" stroke="#fff" stroke-width="2"/>
<path d="M12 84 H88" stroke="#fff" stroke-width="2.6"/>
</g>
<circle cx="37.5" cy="64" r="2.4" fill="#fff"/><circle cx="62.5" cy="64" r="2.4" fill="#fff"/></g>
</svg>
